<mxfile host="app.diagrams.net" modified="2024-06-12T10:47:38.862Z" agent="Mozilla/5.0 (Windows NT 10.0; Win64; x64) AppleWebKit/537.36 (KHTML, like Gecko) Chrome/122.0.0.0 Safari/537.36" etag="nqY7EeEd4RVXByAEZwih" version="24.5.3" type="device">
  <diagram name="Seite-1" id="smU-isI235232P8SCrlf">
    <mxGraphModel dx="1908" dy="1184" grid="1" gridSize="10" guides="1" tooltips="1" connect="1" arrows="1" fold="1" page="1" pageScale="1" pageWidth="1169" pageHeight="827" math="0" shadow="0">
      <root>
        <mxCell id="0" />
        <mxCell id="1" parent="0" />
        <mxCell id="x4_amf0-rBTn6uzK9Nca-2" value="AL" style="shape=folder;fontStyle=1;spacingTop=-5;tabWidth=40;tabHeight=14;tabPosition=left;html=1;whiteSpace=wrap;align=left;verticalAlign=top;" vertex="1" parent="1">
          <mxGeometry x="15" y="90" width="1140" height="658" as="geometry" />
        </mxCell>
        <mxCell id="x4_amf0-rBTn6uzK9Nca-1" value="UI" style="shape=folder;fontStyle=1;spacingTop=-5;tabWidth=40;tabHeight=14;tabPosition=left;html=1;whiteSpace=wrap;align=left;verticalAlign=top;" vertex="1" parent="1">
          <mxGeometry x="320" y="940" width="410" height="430" as="geometry" />
        </mxCell>
        <mxCell id="jS0WHSditBKMMdw0-pOC-1" value="SkillConsumer" style="swimlane;fontStyle=1;align=center;verticalAlign=top;childLayout=stackLayout;horizontal=1;startSize=26;horizontalStack=0;resizeParent=1;resizeParentMax=0;resizeLast=0;collapsible=1;marginBottom=0;whiteSpace=wrap;html=1;" parent="1" vertex="1">
          <mxGeometry x="360" y="1187" width="160" height="112" as="geometry">
            <mxRectangle x="370" y="210" width="100" height="30" as="alternateBounds" />
          </mxGeometry>
        </mxCell>
        <mxCell id="jS0WHSditBKMMdw0-pOC-2" value="- skills: List&amp;lt;String&amp;gt;" style="text;strokeColor=none;fillColor=none;align=left;verticalAlign=top;spacingLeft=4;spacingRight=4;overflow=hidden;rotatable=0;points=[[0,0.5],[1,0.5]];portConstraint=eastwest;whiteSpace=wrap;html=1;" parent="jS0WHSditBKMMdw0-pOC-1" vertex="1">
          <mxGeometry y="26" width="160" height="26" as="geometry" />
        </mxCell>
        <mxCell id="jS0WHSditBKMMdw0-pOC-3" value="" style="line;strokeWidth=1;fillColor=none;align=left;verticalAlign=middle;spacingTop=-1;spacingLeft=3;spacingRight=3;rotatable=0;labelPosition=right;points=[];portConstraint=eastwest;strokeColor=inherit;" parent="jS0WHSditBKMMdw0-pOC-1" vertex="1">
          <mxGeometry y="52" width="160" height="8" as="geometry" />
        </mxCell>
        <mxCell id="jS0WHSditBKMMdw0-pOC-4" value="+ SkillConsumer()" style="text;strokeColor=none;fillColor=none;align=left;verticalAlign=top;spacingLeft=4;spacingRight=4;overflow=hidden;rotatable=0;points=[[0,0.5],[1,0.5]];portConstraint=eastwest;whiteSpace=wrap;html=1;" parent="jS0WHSditBKMMdw0-pOC-1" vertex="1">
          <mxGeometry y="60" width="160" height="26" as="geometry" />
        </mxCell>
        <mxCell id="jS0WHSditBKMMdw0-pOC-5" value="+ update()" style="text;strokeColor=none;fillColor=none;align=left;verticalAlign=top;spacingLeft=4;spacingRight=4;overflow=hidden;rotatable=0;points=[[0,0.5],[1,0.5]];portConstraint=eastwest;whiteSpace=wrap;html=1;" parent="jS0WHSditBKMMdw0-pOC-1" vertex="1">
          <mxGeometry y="86" width="160" height="26" as="geometry" />
        </mxCell>
        <mxCell id="jS0WHSditBKMMdw0-pOC-12" value="" style="endArrow=classic;html=1;rounded=0;exitX=0.25;exitY=0;exitDx=0;exitDy=0;entryX=0.3;entryY=0.962;entryDx=0;entryDy=0;entryPerimeter=0;dashed=1;edgeStyle=orthogonalEdgeStyle;" parent="1" source="jS0WHSditBKMMdw0-pOC-1" target="jS0WHSditBKMMdw0-pOC-32" edge="1">
          <mxGeometry width="50" height="50" relative="1" as="geometry">
            <mxPoint x="1440" y="1157" as="sourcePoint" />
            <mxPoint x="960.04" y="945" as="targetPoint" />
          </mxGeometry>
        </mxCell>
        <mxCell id="jS0WHSditBKMMdw0-pOC-13" value="" style="endArrow=classic;html=1;rounded=0;entryX=0.829;entryY=1.038;entryDx=0;entryDy=0;exitX=0.25;exitY=0;exitDx=0;exitDy=0;dashed=1;edgeStyle=orthogonalEdgeStyle;entryPerimeter=0;" parent="1" source="jS0WHSditBKMMdw0-pOC-73" target="jS0WHSditBKMMdw0-pOC-32" edge="1">
          <mxGeometry width="50" height="50" relative="1" as="geometry">
            <mxPoint x="1155" y="1027" as="sourcePoint" />
            <mxPoint x="1030" y="922" as="targetPoint" />
          </mxGeometry>
        </mxCell>
        <mxCell id="jS0WHSditBKMMdw0-pOC-18" value="&lt;b&gt;&amp;lt;&amp;lt;abstract&amp;gt;&amp;gt;&lt;/b&gt;&lt;div&gt;&lt;b&gt;Publisher&lt;/b&gt;&lt;/div&gt;" style="swimlane;fontStyle=0;childLayout=stackLayout;horizontal=1;startSize=36;fillColor=none;horizontalStack=0;resizeParent=1;resizeParentMax=0;resizeLast=0;collapsible=1;marginBottom=0;whiteSpace=wrap;html=1;" parent="1" vertex="1">
          <mxGeometry x="640" y="190" width="140" height="234" as="geometry" />
        </mxCell>
        <mxCell id="jS0WHSditBKMMdw0-pOC-19" value="- Subscribers: List&amp;lt;Consumer&amp;gt;" style="text;strokeColor=none;fillColor=none;align=left;verticalAlign=top;spacingLeft=4;spacingRight=4;overflow=hidden;rotatable=0;points=[[0,0.5],[1,0.5]];portConstraint=eastwest;whiteSpace=wrap;html=1;" parent="jS0WHSditBKMMdw0-pOC-18" vertex="1">
          <mxGeometry y="36" width="140" height="34" as="geometry" />
        </mxCell>
        <mxCell id="jS0WHSditBKMMdw0-pOC-37" value="- Reports: List&amp;lt;Report&amp;gt;" style="text;strokeColor=none;fillColor=none;align=left;verticalAlign=top;spacingLeft=4;spacingRight=4;overflow=hidden;rotatable=0;points=[[0,0.5],[1,0.5]];portConstraint=eastwest;whiteSpace=wrap;html=1;" parent="jS0WHSditBKMMdw0-pOC-18" vertex="1">
          <mxGeometry y="70" width="140" height="26" as="geometry" />
        </mxCell>
        <mxCell id="jS0WHSditBKMMdw0-pOC-22" value="" style="line;strokeWidth=1;fillColor=none;align=left;verticalAlign=middle;spacingTop=-1;spacingLeft=3;spacingRight=3;rotatable=0;labelPosition=right;points=[];portConstraint=eastwest;strokeColor=inherit;" parent="jS0WHSditBKMMdw0-pOC-18" vertex="1">
          <mxGeometry y="96" width="140" height="8" as="geometry" />
        </mxCell>
        <mxCell id="jS0WHSditBKMMdw0-pOC-17" value="+ produce()" style="text;strokeColor=none;fillColor=none;align=left;verticalAlign=top;spacingLeft=4;spacingRight=4;overflow=hidden;rotatable=0;points=[[0,0.5],[1,0.5]];portConstraint=eastwest;whiteSpace=wrap;html=1;" parent="jS0WHSditBKMMdw0-pOC-18" vertex="1">
          <mxGeometry y="104" width="140" height="26" as="geometry" />
        </mxCell>
        <mxCell id="jS0WHSditBKMMdw0-pOC-36" value="+ notify()" style="text;strokeColor=none;fillColor=none;align=left;verticalAlign=top;spacingLeft=4;spacingRight=4;overflow=hidden;rotatable=0;points=[[0,0.5],[1,0.5]];portConstraint=eastwest;whiteSpace=wrap;html=1;" parent="jS0WHSditBKMMdw0-pOC-18" vertex="1">
          <mxGeometry y="130" width="140" height="26" as="geometry" />
        </mxCell>
        <mxCell id="jS0WHSditBKMMdw0-pOC-35" value="+ register()" style="text;strokeColor=none;fillColor=none;align=left;verticalAlign=top;spacingLeft=4;spacingRight=4;overflow=hidden;rotatable=0;points=[[0,0.5],[1,0.5]];portConstraint=eastwest;whiteSpace=wrap;html=1;" parent="jS0WHSditBKMMdw0-pOC-18" vertex="1">
          <mxGeometry y="156" width="140" height="26" as="geometry" />
        </mxCell>
        <mxCell id="jS0WHSditBKMMdw0-pOC-38" value="+ deregister()" style="text;strokeColor=none;fillColor=none;align=left;verticalAlign=top;spacingLeft=4;spacingRight=4;overflow=hidden;rotatable=0;points=[[0,0.5],[1,0.5]];portConstraint=eastwest;whiteSpace=wrap;html=1;" parent="jS0WHSditBKMMdw0-pOC-18" vertex="1">
          <mxGeometry y="182" width="140" height="26" as="geometry" />
        </mxCell>
        <mxCell id="jS0WHSditBKMMdw0-pOC-66" value="+ getReport()" style="text;strokeColor=none;fillColor=none;align=left;verticalAlign=top;spacingLeft=4;spacingRight=4;overflow=hidden;rotatable=0;points=[[0,0.5],[1,0.5]];portConstraint=eastwest;whiteSpace=wrap;html=1;" parent="jS0WHSditBKMMdw0-pOC-18" vertex="1">
          <mxGeometry y="208" width="140" height="26" as="geometry" />
        </mxCell>
        <mxCell id="jS0WHSditBKMMdw0-pOC-68" style="edgeStyle=orthogonalEdgeStyle;rounded=0;orthogonalLoop=1;jettySize=auto;html=1;exitX=0.75;exitY=0;exitDx=0;exitDy=0;" parent="1" source="jS0WHSditBKMMdw0-pOC-24" target="jS0WHSditBKMMdw0-pOC-18" edge="1">
          <mxGeometry relative="1" as="geometry" />
        </mxCell>
        <mxCell id="jS0WHSditBKMMdw0-pOC-24" value="&lt;b&gt;&amp;lt;&amp;lt;abstract&amp;gt;&amp;gt;&lt;/b&gt;&lt;div&gt;&lt;b&gt;Report&lt;/b&gt;&lt;/div&gt;" style="swimlane;fontStyle=0;childLayout=stackLayout;horizontal=1;startSize=36;fillColor=none;horizontalStack=0;resizeParent=1;resizeParentMax=0;resizeLast=0;collapsible=1;marginBottom=0;whiteSpace=wrap;html=1;" parent="1" vertex="1">
          <mxGeometry x="180" y="380" width="140" height="156" as="geometry" />
        </mxCell>
        <mxCell id="jS0WHSditBKMMdw0-pOC-25" value="- topic: String" style="text;strokeColor=none;fillColor=none;align=left;verticalAlign=top;spacingLeft=4;spacingRight=4;overflow=hidden;rotatable=0;points=[[0,0.5],[1,0.5]];portConstraint=eastwest;whiteSpace=wrap;html=1;" parent="jS0WHSditBKMMdw0-pOC-24" vertex="1">
          <mxGeometry y="36" width="140" height="22" as="geometry" />
        </mxCell>
        <mxCell id="jS0WHSditBKMMdw0-pOC-26" value="&lt;u&gt;- reportID: int&lt;/u&gt;" style="text;strokeColor=none;fillColor=none;align=left;verticalAlign=top;spacingLeft=4;spacingRight=4;overflow=hidden;rotatable=0;points=[[0,0.5],[1,0.5]];portConstraint=eastwest;whiteSpace=wrap;html=1;" parent="jS0WHSditBKMMdw0-pOC-24" vertex="1">
          <mxGeometry y="58" width="140" height="26" as="geometry" />
        </mxCell>
        <mxCell id="jS0WHSditBKMMdw0-pOC-27" value="- studentName: String" style="text;strokeColor=none;fillColor=none;align=left;verticalAlign=top;spacingLeft=4;spacingRight=4;overflow=hidden;rotatable=0;points=[[0,0.5],[1,0.5]];portConstraint=eastwest;whiteSpace=wrap;html=1;" parent="jS0WHSditBKMMdw0-pOC-24" vertex="1">
          <mxGeometry y="84" width="140" height="26" as="geometry" />
        </mxCell>
        <mxCell id="jS0WHSditBKMMdw0-pOC-28" value="" style="line;strokeWidth=1;fillColor=none;align=left;verticalAlign=middle;spacingTop=-1;spacingLeft=3;spacingRight=3;rotatable=0;labelPosition=right;points=[];portConstraint=eastwest;strokeColor=inherit;" parent="jS0WHSditBKMMdw0-pOC-24" vertex="1">
          <mxGeometry y="110" width="140" height="8" as="geometry" />
        </mxCell>
        <mxCell id="jS0WHSditBKMMdw0-pOC-29" value="+ Report()" style="text;strokeColor=none;fillColor=none;align=left;verticalAlign=top;spacingLeft=4;spacingRight=4;overflow=hidden;rotatable=0;points=[[0,0.5],[1,0.5]];portConstraint=eastwest;whiteSpace=wrap;html=1;" parent="jS0WHSditBKMMdw0-pOC-24" vertex="1">
          <mxGeometry y="118" width="140" height="38" as="geometry" />
        </mxCell>
        <mxCell id="jS0WHSditBKMMdw0-pOC-31" value="&lt;b&gt;&amp;lt;&amp;lt;interface&amp;gt;&amp;gt;&lt;/b&gt;&lt;div&gt;&lt;b&gt;Consumer&lt;/b&gt;&lt;/div&gt;" style="swimlane;fontStyle=0;childLayout=stackLayout;horizontal=1;startSize=40;fillColor=none;horizontalStack=0;resizeParent=1;resizeParentMax=0;resizeLast=0;collapsible=1;marginBottom=0;whiteSpace=wrap;html=1;" parent="1" vertex="1">
          <mxGeometry x="340" y="1011" width="140" height="66" as="geometry" />
        </mxCell>
        <mxCell id="jS0WHSditBKMMdw0-pOC-32" value="+ update()" style="text;strokeColor=none;fillColor=none;align=left;verticalAlign=top;spacingLeft=4;spacingRight=4;overflow=hidden;rotatable=0;points=[[0,0.5],[1,0.5]];portConstraint=eastwest;whiteSpace=wrap;html=1;" parent="jS0WHSditBKMMdw0-pOC-31" vertex="1">
          <mxGeometry y="40" width="140" height="26" as="geometry" />
        </mxCell>
        <mxCell id="jS0WHSditBKMMdw0-pOC-40" value="CompanyReport" style="swimlane;fontStyle=1;align=center;verticalAlign=top;childLayout=stackLayout;horizontal=1;startSize=26;horizontalStack=0;resizeParent=1;resizeParentMax=0;resizeLast=0;collapsible=1;marginBottom=0;whiteSpace=wrap;html=1;" parent="1" vertex="1">
          <mxGeometry x="300" y="612" width="160" height="34" as="geometry" />
        </mxCell>
        <mxCell id="jS0WHSditBKMMdw0-pOC-42" value="" style="line;strokeWidth=1;fillColor=none;align=left;verticalAlign=middle;spacingTop=-1;spacingLeft=3;spacingRight=3;rotatable=0;labelPosition=right;points=[];portConstraint=eastwest;strokeColor=inherit;" parent="jS0WHSditBKMMdw0-pOC-40" vertex="1">
          <mxGeometry y="26" width="160" height="8" as="geometry" />
        </mxCell>
        <mxCell id="jS0WHSditBKMMdw0-pOC-44" value="SkillReport" style="swimlane;fontStyle=1;align=center;verticalAlign=top;childLayout=stackLayout;horizontal=1;startSize=26;horizontalStack=0;resizeParent=1;resizeParentMax=0;resizeLast=0;collapsible=1;marginBottom=0;whiteSpace=wrap;html=1;" parent="1" vertex="1">
          <mxGeometry x="60" y="612" width="160" height="86" as="geometry" />
        </mxCell>
        <mxCell id="jS0WHSditBKMMdw0-pOC-45" value="- skill: String" style="text;strokeColor=none;fillColor=none;align=left;verticalAlign=top;spacingLeft=4;spacingRight=4;overflow=hidden;rotatable=0;points=[[0,0.5],[1,0.5]];portConstraint=eastwest;whiteSpace=wrap;html=1;" parent="jS0WHSditBKMMdw0-pOC-44" vertex="1">
          <mxGeometry y="26" width="160" height="26" as="geometry" />
        </mxCell>
        <mxCell id="jS0WHSditBKMMdw0-pOC-46" value="" style="line;strokeWidth=1;fillColor=none;align=left;verticalAlign=middle;spacingTop=-1;spacingLeft=3;spacingRight=3;rotatable=0;labelPosition=right;points=[];portConstraint=eastwest;strokeColor=inherit;" parent="jS0WHSditBKMMdw0-pOC-44" vertex="1">
          <mxGeometry y="52" width="160" height="8" as="geometry" />
        </mxCell>
        <mxCell id="jS0WHSditBKMMdw0-pOC-47" value="+ SkillReport()" style="text;strokeColor=none;fillColor=none;align=left;verticalAlign=top;spacingLeft=4;spacingRight=4;overflow=hidden;rotatable=0;points=[[0,0.5],[1,0.5]];portConstraint=eastwest;whiteSpace=wrap;html=1;" parent="jS0WHSditBKMMdw0-pOC-44" vertex="1">
          <mxGeometry y="60" width="160" height="26" as="geometry" />
        </mxCell>
        <mxCell id="jS0WHSditBKMMdw0-pOC-48" value="SkillReportPublisher" style="swimlane;fontStyle=1;align=center;verticalAlign=top;childLayout=stackLayout;horizontal=1;startSize=26;horizontalStack=0;resizeParent=1;resizeParentMax=0;resizeLast=0;collapsible=1;marginBottom=0;whiteSpace=wrap;html=1;" parent="1" vertex="1">
          <mxGeometry x="540" y="530" width="160" height="86" as="geometry" />
        </mxCell>
        <mxCell id="jS0WHSditBKMMdw0-pOC-50" value="" style="line;strokeWidth=1;fillColor=none;align=left;verticalAlign=middle;spacingTop=-1;spacingLeft=3;spacingRight=3;rotatable=0;labelPosition=right;points=[];portConstraint=eastwest;strokeColor=inherit;" parent="jS0WHSditBKMMdw0-pOC-48" vertex="1">
          <mxGeometry y="26" width="160" height="8" as="geometry" />
        </mxCell>
        <mxCell id="jS0WHSditBKMMdw0-pOC-51" value="+ produce()" style="text;strokeColor=none;fillColor=none;align=left;verticalAlign=top;spacingLeft=4;spacingRight=4;overflow=hidden;rotatable=0;points=[[0,0.5],[1,0.5]];portConstraint=eastwest;whiteSpace=wrap;html=1;" parent="jS0WHSditBKMMdw0-pOC-48" vertex="1">
          <mxGeometry y="34" width="160" height="26" as="geometry" />
        </mxCell>
        <mxCell id="jS0WHSditBKMMdw0-pOC-75" value="+ register()" style="text;strokeColor=none;fillColor=none;align=left;verticalAlign=top;spacingLeft=4;spacingRight=4;overflow=hidden;rotatable=0;points=[[0,0.5],[1,0.5]];portConstraint=eastwest;whiteSpace=wrap;html=1;" parent="jS0WHSditBKMMdw0-pOC-48" vertex="1">
          <mxGeometry y="60" width="160" height="26" as="geometry" />
        </mxCell>
        <mxCell id="jS0WHSditBKMMdw0-pOC-69" style="edgeStyle=orthogonalEdgeStyle;rounded=0;orthogonalLoop=1;jettySize=auto;html=1;exitX=0.25;exitY=0;exitDx=0;exitDy=0;entryX=1;entryY=0.5;entryDx=0;entryDy=0;dashed=1;" parent="1" source="jS0WHSditBKMMdw0-pOC-52" target="jS0WHSditBKMMdw0-pOC-35" edge="1">
          <mxGeometry relative="1" as="geometry" />
        </mxCell>
        <mxCell id="jS0WHSditBKMMdw0-pOC-52" value="CompanyReportPublisher" style="swimlane;fontStyle=1;align=center;verticalAlign=top;childLayout=stackLayout;horizontal=1;startSize=26;horizontalStack=0;resizeParent=1;resizeParentMax=0;resizeLast=0;collapsible=1;marginBottom=0;whiteSpace=wrap;html=1;" parent="1" vertex="1">
          <mxGeometry x="780" y="530" width="160" height="86" as="geometry" />
        </mxCell>
        <mxCell id="jS0WHSditBKMMdw0-pOC-54" value="" style="line;strokeWidth=1;fillColor=none;align=left;verticalAlign=middle;spacingTop=-1;spacingLeft=3;spacingRight=3;rotatable=0;labelPosition=right;points=[];portConstraint=eastwest;strokeColor=inherit;" parent="jS0WHSditBKMMdw0-pOC-52" vertex="1">
          <mxGeometry y="26" width="160" height="8" as="geometry" />
        </mxCell>
        <mxCell id="jS0WHSditBKMMdw0-pOC-71" value="+ produce()" style="text;strokeColor=none;fillColor=none;align=left;verticalAlign=top;spacingLeft=4;spacingRight=4;overflow=hidden;rotatable=0;points=[[0,0.5],[1,0.5]];portConstraint=eastwest;whiteSpace=wrap;html=1;" parent="jS0WHSditBKMMdw0-pOC-52" vertex="1">
          <mxGeometry y="34" width="160" height="26" as="geometry" />
        </mxCell>
        <mxCell id="jS0WHSditBKMMdw0-pOC-76" value="+ register()" style="text;strokeColor=none;fillColor=none;align=left;verticalAlign=top;spacingLeft=4;spacingRight=4;overflow=hidden;rotatable=0;points=[[0,0.5],[1,0.5]];portConstraint=eastwest;whiteSpace=wrap;html=1;" parent="jS0WHSditBKMMdw0-pOC-52" vertex="1">
          <mxGeometry y="60" width="160" height="26" as="geometry" />
        </mxCell>
        <mxCell id="jS0WHSditBKMMdw0-pOC-56" value="" style="endArrow=classic;html=1;rounded=0;exitX=0.5;exitY=0;exitDx=0;exitDy=0;entryX=0.243;entryY=1;entryDx=0;entryDy=0;entryPerimeter=0;dashed=1;edgeStyle=orthogonalEdgeStyle;" parent="1" source="jS0WHSditBKMMdw0-pOC-44" target="jS0WHSditBKMMdw0-pOC-29" edge="1">
          <mxGeometry width="50" height="50" relative="1" as="geometry">
            <mxPoint x="450" y="532" as="sourcePoint" />
            <mxPoint x="500" y="482" as="targetPoint" />
          </mxGeometry>
        </mxCell>
        <mxCell id="jS0WHSditBKMMdw0-pOC-57" value="" style="endArrow=classic;html=1;rounded=0;exitX=0.25;exitY=0;exitDx=0;exitDy=0;entryX=0.743;entryY=1.026;entryDx=0;entryDy=0;entryPerimeter=0;dashed=1;edgeStyle=orthogonalEdgeStyle;" parent="1" source="jS0WHSditBKMMdw0-pOC-40" target="jS0WHSditBKMMdw0-pOC-29" edge="1">
          <mxGeometry width="50" height="50" relative="1" as="geometry">
            <mxPoint x="130" y="622" as="sourcePoint" />
            <mxPoint x="224" y="550" as="targetPoint" />
          </mxGeometry>
        </mxCell>
        <mxCell id="jS0WHSditBKMMdw0-pOC-60" value="Main" style="swimlane;fontStyle=1;align=center;verticalAlign=top;childLayout=stackLayout;horizontal=1;startSize=26;horizontalStack=0;resizeParent=1;resizeParentMax=0;resizeLast=0;collapsible=1;marginBottom=0;whiteSpace=wrap;html=1;" parent="1" vertex="1">
          <mxGeometry x="940" y="190" width="160" height="60" as="geometry" />
        </mxCell>
        <mxCell id="jS0WHSditBKMMdw0-pOC-62" value="" style="line;strokeWidth=1;fillColor=none;align=left;verticalAlign=middle;spacingTop=-1;spacingLeft=3;spacingRight=3;rotatable=0;labelPosition=right;points=[];portConstraint=eastwest;strokeColor=inherit;" parent="jS0WHSditBKMMdw0-pOC-60" vertex="1">
          <mxGeometry y="26" width="160" height="8" as="geometry" />
        </mxCell>
        <mxCell id="jS0WHSditBKMMdw0-pOC-72" value="&lt;u&gt;+ main()&lt;/u&gt;" style="text;strokeColor=none;fillColor=none;align=left;verticalAlign=top;spacingLeft=4;spacingRight=4;overflow=hidden;rotatable=0;points=[[0,0.5],[1,0.5]];portConstraint=eastwest;whiteSpace=wrap;html=1;" parent="jS0WHSditBKMMdw0-pOC-60" vertex="1">
          <mxGeometry y="34" width="160" height="26" as="geometry" />
        </mxCell>
        <mxCell id="jS0WHSditBKMMdw0-pOC-70" style="edgeStyle=orthogonalEdgeStyle;rounded=0;orthogonalLoop=1;jettySize=auto;html=1;exitX=0.25;exitY=0;exitDx=0;exitDy=0;entryX=0.129;entryY=1.038;entryDx=0;entryDy=0;entryPerimeter=0;dashed=1;" parent="1" source="jS0WHSditBKMMdw0-pOC-48" target="jS0WHSditBKMMdw0-pOC-66" edge="1">
          <mxGeometry relative="1" as="geometry" />
        </mxCell>
        <mxCell id="jS0WHSditBKMMdw0-pOC-73" value="CompanyConsumer" style="swimlane;fontStyle=1;align=center;verticalAlign=top;childLayout=stackLayout;horizontal=1;startSize=26;horizontalStack=0;resizeParent=1;resizeParentMax=0;resizeLast=0;collapsible=1;marginBottom=0;whiteSpace=wrap;html=1;" parent="1" vertex="1">
          <mxGeometry x="540" y="1187" width="160" height="34" as="geometry" />
        </mxCell>
        <mxCell id="jS0WHSditBKMMdw0-pOC-74" value="" style="line;strokeWidth=1;fillColor=none;align=left;verticalAlign=middle;spacingTop=-1;spacingLeft=3;spacingRight=3;rotatable=0;labelPosition=right;points=[];portConstraint=eastwest;strokeColor=inherit;" parent="jS0WHSditBKMMdw0-pOC-73" vertex="1">
          <mxGeometry y="26" width="160" height="8" as="geometry" />
        </mxCell>
        <mxCell id="x4_amf0-rBTn6uzK9Nca-4" style="edgeStyle=orthogonalEdgeStyle;rounded=0;orthogonalLoop=1;jettySize=auto;html=1;entryX=0;entryY=0;entryDx=225;entryDy=14;entryPerimeter=0;dashed=1;" edge="1" parent="1" source="x4_amf0-rBTn6uzK9Nca-2" target="x4_amf0-rBTn6uzK9Nca-1">
          <mxGeometry relative="1" as="geometry" />
        </mxCell>
        <mxCell id="x4_amf0-rBTn6uzK9Nca-5" value="&amp;lt;&amp;lt;import&amp;gt;&amp;gt;" style="text;html=1;align=center;verticalAlign=middle;resizable=0;points=[];autosize=1;strokeColor=none;fillColor=none;" vertex="1" parent="1">
          <mxGeometry x="585" y="770" width="80" height="30" as="geometry" />
        </mxCell>
      </root>
    </mxGraphModel>
  </diagram>
</mxfile>
